<svg width="108" height="108" viewBox="0 0 108 108" fill="none" xmlns="http://www.w3.org/2000/svg">
<path fill-rule="evenodd" clip-rule="evenodd" d="M53.828 0C83.5565 0 107.656 24.0996 107.656 53.828C107.656 83.5565 83.5565 107.656 53.828 107.656C24.0997 107.656 0 83.5565 0 53.828C0 24.0996 24.0997 0 53.828 0Z" fill="white" fill-opacity="0.67"/>
<path fill-rule="evenodd" clip-rule="evenodd" d="M53.8279 7.02104C79.6789 7.02104 100.635 27.9773 100.635 53.828C100.635 79.6789 79.6789 100.635 53.8279 100.635C27.9772 100.635 7.02096 79.6789 7.02096 53.828C7.02096 27.9773 27.9772 7.02104 53.8279 7.02104Z" fill="#979797"/>
<path fill-rule="evenodd" clip-rule="evenodd" d="M53.8279 7.02104C79.6789 7.02104 100.635 27.9773 100.635 53.828C100.635 79.6789 79.6789 100.635 53.8279 100.635C27.9772 100.635 7.02096 79.6789 7.02096 53.828C7.02096 27.9773 27.9772 7.02104 53.8279 7.02104Z" fill="#8CB63D"/>
<path fill-rule="evenodd" clip-rule="evenodd" d="M54.9984 39.7853H52.6581C52.0119 39.7853 51.4879 40.3092 51.4879 40.9555V51.4871H40.9563C40.3101 51.4871 39.7861 52.0109 39.7861 52.6573V54.9976C39.7861 55.6438 40.3101 56.1678 40.9563 56.1678H51.4879V66.6994C51.4879 67.3456 52.0119 67.8695 52.6581 67.8695H54.9984C55.6447 67.8695 56.1686 67.3456 56.1686 66.6994V56.1678H66.7003C67.3465 56.1678 67.8705 55.6438 67.8705 54.9976V52.6573C67.8705 52.0109 67.3465 51.4871 66.7003 51.4871H56.1686V40.9555C56.1686 40.3092 55.6447 39.7853 54.9984 39.7853Z" fill="white"/>
</svg>
