<svg width="30" height="16" viewBox="0 0 30 16" fill="none" xmlns="http://www.w3.org/2000/svg">
<path d="M29.642 7.55253C22.8994 -2.72002 6.28867 -2.31427 0.12019 7.55662C-0.0408958 7.8318 -0.0400203 8.17324 0.122583 8.44755C6.86018 18.7152 23.4713 18.3191 29.6444 8.44346C29.8056 8.16828 29.8047 7.82684 29.642 7.55253V7.55253ZM21.116 7.99978C21.116 11.4355 18.3301 14.2317 14.9018 14.2423C14.854 14.242 14.8064 14.2416 14.759 14.2409C11.3784 14.1749 8.64864 11.4007 8.64864 7.99972C8.64012 4.51507 11.5606 1.65328 15.0553 1.75951C18.4129 1.85161 21.116 4.61546 21.116 7.99978V7.99978ZM1.91606 7.9954C2.91258 6.29734 6.43383 3.46702 8.86832 2.75275C6.15835 5.85646 6.37943 10.3308 8.78854 13.1532C4.83464 11.6596 2.6619 9.04263 1.91606 7.9954V7.9954ZM24.8853 11.0539C23.662 11.9904 22.3294 12.7222 20.8957 13.2475C23.6061 10.1441 23.3856 5.66981 20.9767 2.84707C24.9303 4.34079 27.1028 6.95745 27.8486 8.00462C27.3997 8.64815 26.4376 9.86546 24.8853 11.0539V11.0539Z" fill="#8CB63D"/>
</svg>
