<svg width="29" height="27" viewBox="0 0 29 27" fill="none" xmlns="http://www.w3.org/2000/svg">
<path d="M16.3118 4.31185C16.3118 3.74193 16.3118 3.19714 16.3118 2.59062C15.8924 2.59062 15.4902 2.59851 15.0881 2.58846C14.6044 2.57626 14.2802 2.30279 14.2304 1.88432C14.177 1.43571 14.4788 1.01868 14.9307 1.01294C16.3963 0.99428 17.8619 0.997151 19.3275 1.01294C19.7029 1.01725 19.991 1.34456 20.0271 1.71493C20.0617 2.06664 19.848 2.41189 19.5044 2.52602C19.3708 2.57052 19.2228 2.58559 19.0806 2.58918C18.721 2.5978 18.3608 2.59205 17.9666 2.59205C17.9666 3.17345 17.9666 3.73619 17.9666 4.25514C18.7997 4.4432 19.6351 4.56953 20.4307 4.82075C25.0368 6.27354 28.1146 10.5658 27.9962 15.3233C27.8764 20.1518 24.6448 24.274 19.9867 25.5416C14.7899 26.9556 9.28273 24.3278 7.14209 19.4125C6.82442 18.6832 7.18036 18.053 7.87489 18.1162C8.26042 18.1513 8.45102 18.4004 8.59542 18.7306C9.43651 20.6564 10.7707 22.1486 12.6204 23.1693C18.2532 26.2794 25.3256 22.8262 26.2989 16.4947C27.0865 11.3712 23.4326 6.57716 18.2431 5.97063C15.1928 5.6139 12.5872 6.57357 10.4278 8.73767C10.318 8.84749 10.2177 8.96736 10.1072 9.07646C9.76934 9.40951 9.30295 9.43032 8.9759 9.13101C8.65029 8.83313 8.61274 8.35725 8.93402 8.00841C9.30656 7.6043 9.69209 7.20665 10.113 6.8535C11.7706 5.46173 13.6781 4.6248 15.8411 4.38004C15.9927 4.36281 16.1451 4.33625 16.3118 4.31185Z" fill="#404040" stroke="#404040" stroke-width="0.5"/>
<path d="M16.6324 17.5227C15.7184 16.5767 14.821 15.6637 13.9445 14.7313C13.6081 14.3731 13.6536 13.8262 13.9958 13.5017C14.3394 13.1766 14.8694 13.173 15.2368 13.5032C15.7444 13.9597 16.2461 14.4234 16.7501 14.8835C16.7356 14.9193 16.7205 14.9559 16.706 14.9918C16.81 14.9021 16.9169 14.8153 17.0172 14.722C18.4886 13.3488 19.9564 11.9729 21.4328 10.6055C21.5858 10.4634 21.7743 10.3299 21.9707 10.2689C22.3706 10.144 22.7836 10.3428 22.9792 10.701C23.167 11.0441 23.1005 11.4876 22.7894 11.7834C21.9901 12.5421 21.183 13.2921 20.378 14.0451C19.2228 15.1246 18.067 16.2034 16.9111 17.2823C16.8331 17.3548 16.7501 17.4215 16.6324 17.5227Z" fill="#404040" stroke="#404040" stroke-width="0.5"/>
<path d="M6.5152 9.66745C8.04072 9.66745 9.56552 9.66961 11.091 9.66602C11.4491 9.6653 11.7228 9.79522 11.8816 10.1204C12.0202 10.4039 12.0108 10.7125 11.7892 10.9207C11.613 11.0858 11.3401 11.2408 11.1091 11.2423C8.02267 11.2631 4.93625 11.2595 1.84983 11.253C1.34878 11.2523 1.00585 10.915 1.00007 10.4656C0.994296 9.99835 1.33868 9.67176 1.86788 9.66961C3.41723 9.66458 4.96585 9.66745 6.5152 9.66745Z" fill="#404040" stroke="#404040" stroke-width="0.5"/>
<path d="M7.08977 14.4897C5.76857 14.4897 4.44736 14.4961 3.12616 14.4868C2.47494 14.4818 2.0923 13.9104 2.35437 13.3606C2.51104 13.0319 2.78972 12.9048 3.14565 12.9063C3.9622 12.9091 4.77875 12.9063 5.59602 12.907C7.42188 12.907 9.24702 12.9091 11.0729 12.9063C11.4274 12.9055 11.7089 13.0218 11.8735 13.347C12.0165 13.6276 11.9876 13.904 11.8086 14.1588C11.6266 14.4179 11.3595 14.4933 11.0534 14.4926C9.73219 14.4882 8.41098 14.4904 7.08977 14.4897Z" fill="#404040" stroke="#404040" stroke-width="0.5"/>
<path d="M7.91099 17.7294C6.85475 17.7294 5.79923 17.7315 4.74298 17.7286C4.18851 17.7272 3.83258 17.4114 3.83547 16.9362C3.83835 16.4625 4.19717 16.1459 4.75237 16.1452C6.85258 16.1423 8.95279 16.1423 11.053 16.1452C11.6096 16.1459 11.9598 16.4625 11.9584 16.9448C11.9569 17.425 11.6089 17.7272 11.0443 17.7286C9.99892 17.7308 8.95496 17.7286 7.91099 17.7294Z" fill="#404040" stroke="#404040" stroke-width="0.5"/>
</svg>
