<svg width="53" height="53" viewBox="0 0 53 53" fill="none" xmlns="http://www.w3.org/2000/svg">
<path d="M14.7273 1.5H38.75C46.0552 1.5 51.9773 7.42205 51.9773 14.7273V38.75C51.9773 46.0552 46.0552 51.9773 38.75 51.9773H14.7273C7.42205 51.9773 1.5 46.0552 1.5 38.75V14.7273C1.5 7.42205 7.42205 1.5 14.7273 1.5Z" fill="#8CB63D" stroke="black"/>
<path d="M38.75 1.85791H14.7272C7.6197 1.85791 1.85791 7.6197 1.85791 14.7272V38.75C1.85791 45.8575 7.6197 51.6193 14.7272 51.6193H38.75C45.8575 51.6193 51.6193 45.8575 51.6193 38.75V14.7272C51.6193 7.6197 45.8575 1.85791 38.75 1.85791Z" stroke="#8CB63D" stroke-width="2" stroke-linejoin="round"/>
<path fill-rule="evenodd" clip-rule="evenodd" d="M36.2391 36.3187C34.3982 36.7 36.2391 37.2247 36.2391 37.2247C36.2391 37.6793 35.878 38.0478 35.4326 38.0478C34.987 38.0478 34.6259 37.6793 34.6259 37.2247V36.3187C32.785 35.9373 31.3992 34.2771 31.3992 32.286C31.3992 30.2948 32.785 28.6346 34.6259 28.2531V15.8231C34.6259 15.3687 34.987 15 35.4326 15C35.878 15 36.2391 15.3687 36.2391 15.8231V28.2531C38.0801 28.6346 39.4658 30.2948 39.4658 32.286C39.4658 34.2771 38.0801 35.9373 36.2391 36.3187ZM35.4325 29.8164C34.0959 29.8164 33.0124 30.9221 33.0124 32.286C33.0124 33.6497 34.0959 34.7554 35.4325 34.7554C36.7689 34.7554 37.8525 33.6497 37.8525 32.286C37.8525 30.9221 36.7689 29.8164 35.4325 29.8164ZM28.1724 24.7947V37.2247C28.1724 37.6793 27.8113 38.0478 27.3657 38.0478C26.9202 38.0478 26.559 37.6793 26.559 37.2247V24.7947C24.7181 24.4134 23.3323 22.753 23.3323 20.762C23.3323 18.7709 24.7181 17.1107 26.559 16.7293V15.8231C26.559 15.3687 26.9202 15 27.3657 15C27.8113 15 28.1724 15.3687 28.1724 15.8231V16.7293C30.0134 17.1107 31.3991 18.7709 31.3991 20.762C31.3991 22.753 30.0134 24.4134 28.1724 24.7947ZM27.3657 18.2926C26.0292 18.2926 24.9457 19.3982 24.9457 20.762C24.9457 22.1259 26.0292 23.2314 27.3657 23.2314C28.7022 23.2314 29.7857 22.1259 29.7857 20.762C29.7857 19.3982 28.7022 18.2926 27.3657 18.2926ZM20.1056 33.0261V37.2247C20.1056 37.6793 19.7445 38.0478 19.2989 38.0478C18.8535 38.0478 18.4923 37.6793 18.4923 37.2247V33.0261C16.6514 32.6448 15.2656 30.9844 15.2656 28.9934C15.2656 27.0023 16.6514 25.3421 18.4923 24.9608V15.8231C18.4923 15.3687 18.8535 15 19.2989 15C19.7445 15 20.1056 15.3687 20.1056 15.8231V24.9608C21.9465 25.3421 23.3323 27.0023 23.3323 28.9934C23.3323 30.9844 21.9465 32.6448 20.1056 33.0261ZM19.2989 26.5239C17.9624 26.5239 16.879 27.6296 16.879 28.9934C16.879 30.3573 17.9624 31.4628 19.2989 31.4628C20.6356 31.4628 21.719 30.3573 21.719 28.9934C21.719 27.6296 20.6356 26.5239 19.2989 26.5239Z" fill="white"/>
</svg>
