<svg width="24" height="27" viewBox="0 0 24 27" fill="none" xmlns="http://www.w3.org/2000/svg">
<path d="M16.1788 17.5384C18.8424 13.3587 18.5076 13.8802 18.5844 13.7712C19.5541 12.4034 20.0667 10.7935 20.0667 9.11556C20.0667 4.66569 16.4557 1 12 1C7.55884 1 3.93333 4.65845 3.93333 9.11556C3.93333 10.7924 4.45664 12.4445 5.45818 13.8307L7.82108 17.5384C5.29474 17.9267 1 19.0836 1 21.6311C1 22.5598 1.60612 23.8832 4.4937 24.9144C6.50997 25.6345 9.17574 26.0311 12 26.0311C17.2812 26.0311 23 24.5414 23 21.6311C23 19.0832 18.7103 17.9274 16.1788 17.5384ZM6.68328 13.024C6.67522 13.0114 6.66681 12.999 6.65801 12.9869C5.8246 11.8404 5.4 10.4816 5.4 9.11556C5.4 5.44801 8.35318 2.46667 12 2.46667C15.6392 2.46667 18.6 5.44933 18.6 9.11556C18.6 10.4838 18.1834 11.7965 17.3951 12.9128C17.3244 13.006 17.693 12.4334 12 21.3666L6.68328 13.024ZM12 24.5644C6.2314 24.5644 2.46667 22.8688 2.46667 21.6311C2.46667 20.7992 4.4011 19.4314 8.68768 18.8982L11.3816 23.1253C11.5162 23.3366 11.7494 23.4644 12 23.4644C12.2505 23.4644 12.4838 23.3365 12.6183 23.1253L15.3122 18.8982C19.5988 19.4314 21.5333 20.7992 21.5333 21.6311C21.5333 22.8583 17.8025 24.5644 12 24.5644Z" fill="#404040" stroke="#404040" stroke-width="0.5"/>
<path d="M12.0002 5.44922C9.97836 5.44922 8.3335 7.09409 8.3335 9.11589C8.3335 11.1377 9.97836 12.7826 12.0002 12.7826C14.022 12.7826 15.6668 11.1377 15.6668 9.11589C15.6668 7.09409 14.022 5.44922 12.0002 5.44922ZM12.0002 11.3159C10.7871 11.3159 9.80016 10.329 9.80016 9.11589C9.80016 7.90281 10.7871 6.91589 12.0002 6.91589C13.2132 6.91589 14.2002 7.90281 14.2002 9.11589C14.2002 10.329 13.2132 11.3159 12.0002 11.3159Z" fill="#404040" stroke="#404040" stroke-width="0.5"/>
</svg>
