<svg width="29" height="25" viewBox="0 0 29 25" fill="none" xmlns="http://www.w3.org/2000/svg">
<path d="M8.13457 22.9936L8.13455 22.9936C7.68217 23.1908 7.47447 23.7215 7.66794 24.1782C7.8617 24.6357 8.38565 24.849 8.83885 24.6514C10.6382 23.8672 12.5426 23.4694 14.5011 23.4683H14.5058C16.4612 23.4683 18.3636 23.8647 20.1606 24.6454L20.1675 24.6489L20.1674 24.6491L20.1727 24.6514C20.2874 24.7014 20.4071 24.725 20.5249 24.725C20.8707 24.725 21.199 24.5198 21.3437 24.1782C21.537 23.7218 21.3297 23.1915 20.8784 22.994C20.8782 22.9939 20.8779 22.9938 20.8776 22.9937L20.8686 22.9895L20.8686 22.9895L20.867 22.9888C19.656 22.462 18.4022 22.0919 17.1191 21.879V18.8145H27.0313C27.622 18.8145 28.1 18.3275 28.1 17.7317V1.98277C28.1 1.38696 27.622 0.9 27.0313 0.9H1.96873C1.37795 0.9 0.9 1.38696 0.9 1.98277V17.7317C0.9 18.3274 1.37788 18.815 1.96873 18.815H11.8809V21.8812C10.5982 22.0946 9.34497 22.4663 8.13457 22.9936ZM15.3371 18.815V21.6865C15.0612 21.6719 14.784 21.6639 14.5058 21.6639H14.5C14.2196 21.6639 13.9407 21.6724 13.6629 21.6871V18.815H15.3371ZM26.3185 17.01H2.6815V2.70442H26.3185V17.01Z" fill="#404040" stroke="#404040" stroke-width="0.2"/>
<path d="M17.8812 14.9307V11.8342C17.8812 11.3368 17.4839 10.9317 16.9902 10.9317C16.4969 10.9317 16.0997 11.3369 16.0997 11.8342V14.9307C16.0997 15.4276 16.497 15.8327 16.9902 15.8327C17.4839 15.8327 17.8812 15.4276 17.8812 14.9307Z" fill="#404040" stroke="#404040" stroke-width="0.2"/>
<path d="M20.3592 14.9309V6.48559C20.3592 5.98821 19.962 5.58311 19.4682 5.58311C18.975 5.58311 18.5777 5.98826 18.5777 6.48559V14.9309C18.5777 15.4276 18.9749 15.8334 19.4682 15.8334C19.962 15.8334 20.3592 15.4277 20.3592 14.9309Z" fill="#404040" stroke="#404040" stroke-width="0.2"/>
<path d="M22.8783 14.9301V8.62426C22.8783 8.12747 22.4811 7.72178 21.9873 7.72178C21.494 7.72178 21.0968 8.12751 21.0968 8.62426V14.9301C21.0968 15.427 21.494 15.8321 21.9873 15.8321C22.481 15.8321 22.8783 15.427 22.8783 14.9301Z" fill="#404040" stroke="#404040" stroke-width="0.2"/>
<path d="M25.3988 14.9304V10.7639C25.3988 10.2671 25.0016 9.86143 24.5078 9.86143C24.0145 9.86143 23.6173 10.2672 23.6173 10.7639V14.9304C23.6173 15.4272 24.0146 15.8323 24.5078 15.8323C25.0015 15.8323 25.3988 15.4273 25.3988 14.9304Z" fill="#404040" stroke="#404040" stroke-width="0.2"/>
</svg>
