<svg width="24" height="24" viewBox="0 0 24 24" fill="none" xmlns="http://www.w3.org/2000/svg">
<path d="M12.7448 14.7715V14.6715H12.6448H11.3557H11.2557V14.7715V18.1945L8.29131 19.906L8.20471 19.956L8.25471 20.0426L8.89924 21.1589L8.94924 21.2455L9.03584 21.1955L12.0003 19.484L14.9647 21.1955L15.0513 21.2455L15.1013 21.1589L15.7458 20.0426L15.7958 19.956L15.7092 19.906L12.7448 18.1945V14.7715Z" fill="#404040" stroke="#404040" stroke-width="0.2"/>
<path d="M4.05127 16.1176C5.61689 16.1176 6.89052 14.844 6.89052 13.2783C6.89052 11.7127 5.61693 10.4391 4.05127 10.4391C2.48565 10.4391 1.21201 11.7127 1.21201 13.2783C1.21201 14.844 2.48565 16.1176 4.05127 16.1176ZM4.05127 11.9281C4.79565 11.9281 5.40146 12.5339 5.40146 13.2783C5.40146 14.0227 4.79565 14.6285 4.05127 14.6285C3.30689 14.6285 2.70107 14.0227 2.70107 13.2783C2.70107 12.5339 3.30689 11.9281 4.05127 11.9281Z" fill="#404040" stroke="#404040" stroke-width="0.2"/>
<path d="M19.9487 16.1176C21.5144 16.1176 22.788 14.844 22.788 13.2783C22.788 11.7127 21.5144 10.4391 19.9487 10.4391C18.3831 10.4391 17.1095 11.7127 17.1095 13.2783C17.1095 14.844 18.3831 16.1176 19.9487 16.1176ZM19.9487 11.9281C20.6931 11.9281 21.2989 12.5339 21.2989 13.2783C21.2989 14.0227 20.6931 14.6285 19.9487 14.6285C19.2044 14.6285 18.5985 14.0227 18.5985 13.2783C18.5985 12.5339 19.2044 11.9281 19.9487 11.9281Z" fill="#404040" stroke="#404040" stroke-width="0.2"/>
<path d="M11.9858 6.57851C13.5515 6.57851 14.8251 5.30492 14.8251 3.73926C14.8251 2.17359 13.5515 0.9 11.9858 0.9C10.4202 0.9 9.14658 2.17359 9.14658 3.73926C9.14658 5.30492 10.4202 6.57851 11.9858 6.57851ZM11.9858 2.38906C12.7302 2.38906 13.336 2.99484 13.336 3.73926C13.336 4.48367 12.7302 5.08945 11.9858 5.08945C11.2415 5.08945 10.6356 4.48367 10.6356 3.73926C10.6356 2.99484 11.2414 2.38906 11.9858 2.38906Z" fill="#404040" stroke="#404040" stroke-width="0.2"/>
<path d="M8.84077 13.4611L8.84095 13.5609H8.94077H15.0638H15.1642L15.1638 13.4605L15.1532 10.9233C15.1461 9.19147 13.7237 7.775 11.9918 7.775C10.2466 7.775 8.83276 9.19149 8.83604 10.9367L8.84077 13.4611ZM13.669 12.0719H10.3243L10.3224 10.9363C10.3208 10.0132 11.0687 9.26406 11.9918 9.26406C12.9099 9.26406 13.6604 10.0113 13.6642 10.9295L13.669 12.0719Z" fill="#404040" stroke="#404040" stroke-width="0.2"/>
<path d="M0.904775 23.0002L0.904964 23.1H1.00478H7.12782H7.22824L7.22782 22.9996L7.21721 20.4624C7.21002 18.7305 5.78765 17.3141 4.05573 17.3141C2.31055 17.3141 0.896722 18.7306 0.900006 20.4757L0.904775 23.0002ZM5.73296 21.6109H2.3883L2.38636 20.4754C2.38478 19.5523 3.13267 18.8031 4.05573 18.8031C4.9739 18.8031 5.72433 19.5504 5.72815 20.4686L5.73296 21.6109Z" fill="#404040" stroke="#404040" stroke-width="0.2"/>
<path d="M16.7768 23.0002L16.777 23.1H16.8768H22.9998H23.1003L23.0998 22.9996L23.0893 20.4624C23.082 18.7305 21.6597 17.3141 19.9278 17.3141C18.1826 17.3141 16.7688 18.7306 16.7721 20.4757L16.7768 23.0002ZM21.605 21.6109H18.2603L18.2584 20.4754C18.2568 19.5523 19.0047 18.8031 19.9278 18.8031C20.846 18.8031 21.5964 19.5504 21.6002 20.4686L21.605 21.6109Z" fill="#404040" stroke="#404040" stroke-width="0.2"/>
</svg>
