<svg width="1330" height="1022" viewBox="0 0 1330 1022" fill="none" xmlns="http://www.w3.org/2000/svg">
<path d="M231.383 796.903C223.485 729.884 221.093 603.992 420.95 598.044C670.771 590.608 957.446 806.554 1095.58 640.789C1216.39 495.826 1193.09 387.863 1143.91 138.995" stroke="#FC0D1B" stroke-width="1.8"/>
<path d="M245.888 806.196C237.989 739.177 235.597 613.285 435.454 607.336C685.275 599.901 971.951 815.847 1110.09 650.082C1230.89 505.119 1204.24 411.095 1155.06 162.226" stroke="#AE71C5" stroke-width="1.8"/>
<path d="M253.685 793.186C245.786 726.167 254.182 644.879 454.039 638.931C703.86 631.495 990.536 847.441 1128.67 681.676C1249.48 536.713 1187.52 406.448 1138.33 157.58" stroke="#CA592A" stroke-width="1.8"/>
<path d="M256.002 778.318C248.104 711.299 256.5 630.011 456.357 624.063C706.177 616.627 992.853 832.573 1130.99 666.808C1251.79 521.846 1189.84 391.58 1140.65 142.712" stroke="#BFADA4" stroke-width="1.8"/>
<path d="M218.011 756.016C210.112 688.997 207.72 563.106 407.577 557.157C657.398 549.722 937.003 838.149 1075.14 672.384C1195.94 527.421 1180.08 397.156 1130.9 148.288" stroke="#7389AF" stroke-width="1.8"/>
<path d="M189.259 161.538C223.341 103.295 497.617 86.4963 660.695 202.184C864.543 346.793 645.708 535.579 855.838 486.534C1039.6 443.643 1101.16 482.817 950.621 743.006" stroke="#7389AF" stroke-width="1.8"/>
<path d="M183.346 178.112C217.428 119.868 491.704 103.07 654.782 218.757C858.63 363.366 639.795 552.152 849.925 503.107C1033.68 460.217 1095.25 499.39 944.708 759.579" stroke="#FC0D1B" stroke-width="1.8"/>
<path d="M183.346 186.475C217.428 128.231 491.704 111.433 654.782 227.12C858.63 371.729 639.795 560.515 849.925 511.47C1033.68 468.58 1098.84 500.937 948.298 761.127" stroke="#BFADA4" stroke-width="1.8"/>
<path d="M181.487 196.697C215.57 138.453 489.846 121.654 652.924 237.342C856.772 381.951 637.936 570.737 848.066 521.692C1031.83 478.802 1097.91 497.22 947.369 757.41" stroke="#CA592A" stroke-width="1.8"/>
<path d="M205.647 163.243C239.73 105 514.006 88.2013 677.084 203.889C880.932 348.498 662.096 537.284 872.226 488.239C1055.99 445.349 1117.55 484.522 967.01 744.711" stroke="#AE71C5" stroke-width="1.8"/>
<rect opacity="0.1" y="0.537109" width="404.223" height="404.223" rx="202.112" fill="#8CB63D"/>
<rect opacity="0.2" x="67.3711" y="67.9077" width="269.482" height="269.482" rx="134.741" fill="#8CB63D"/>
<path d="M134.741 202.648C134.741 165.441 164.904 135.278 202.112 135.278V135.278C239.319 135.278 269.482 165.441 269.482 202.648V202.648C269.482 239.856 239.319 270.019 202.112 270.019V270.019C164.904 270.019 134.741 239.856 134.741 202.648V202.648Z" fill="#8CB63D"/>
<rect opacity="0.1" x="592.86" y="165.014" width="303.864" height="303.864" rx="151.932" fill="#8CB63D"/>
<rect opacity="0.2" x="643.505" y="215.658" width="202.576" height="202.576" rx="101.288" fill="#8CB63D"/>
<path d="M694.148 316.946C694.148 288.976 716.823 266.302 744.792 266.302V266.302C772.762 266.302 795.437 288.976 795.437 316.946V316.946C795.437 344.916 772.762 367.59 744.792 367.59V367.59C716.823 367.59 694.148 344.916 694.148 316.946V316.946Z" fill="#8CB63D"/>
<rect opacity="0.1" x="127.308" y="651.94" width="248.109" height="248.109" rx="124.055" fill="#8CB63D"/>
<rect opacity="0.2" x="168.659" y="693.291" width="165.406" height="165.406" rx="82.7031" fill="#8CB63D"/>
<path d="M210.011 775.995C210.011 753.157 228.524 734.643 251.362 734.643V734.643C274.2 734.643 292.714 753.157 292.714 775.995V775.995C292.714 798.833 274.2 817.346 251.362 817.346V817.346C228.524 817.346 210.011 798.833 210.011 775.995V775.995Z" fill="#8CB63D"/>
<rect opacity="0.1" x="1055.63" y="80.4528" width="162.618" height="162.618" rx="81.3092" fill="#8CB63D"/>
<rect opacity="0.2" x="1082.73" y="107.556" width="108.412" height="108.412" rx="54.2062" fill="#8CB63D"/>
<path d="M1109.52 161.452C1109.52 146.484 1121.66 134.349 1136.63 134.349V134.349C1151.6 134.349 1163.73 146.484 1163.73 161.452V161.452C1163.73 176.421 1151.6 188.556 1136.63 188.556V188.556C1121.66 188.556 1109.52 176.421 1109.52 161.452V161.452Z" fill="#8CB63D"/>
<rect opacity="0.1" x="837.253" y="599.902" width="251.826" height="251.826" rx="125.913" fill="#8CB63D"/>
<rect opacity="0.2" x="879.224" y="641.873" width="167.884" height="167.884" rx="83.9421" fill="#8CB63D"/>
<path d="M920.886 725.505C920.886 702.325 939.677 683.534 962.857 683.534V683.534C986.037 683.534 1004.83 702.325 1004.83 725.505V725.505C1004.83 748.685 986.037 767.476 962.857 767.476V767.476C939.677 767.476 920.886 748.685 920.886 725.505V725.505Z" fill="#8CB63D"/>
</svg>
