<svg width="105" height="54" viewBox="0 0 105 54" fill="none" xmlns="http://www.w3.org/2000/svg">
<path d="M104.292 17.7754C102.61 17.7754 100.965 18.0744 99.3573 18.6726C97.7872 19.2707 96.1049 20.4109 94.3105 22.0931V41.495H89.7124V13.738H94.0862V18.224C95.9928 16.3548 97.7311 15.0464 99.3012 14.2987C100.909 13.5511 102.572 13.1772 104.292 13.1772V17.7754Z" fill="#8CB63D"/>
<path d="M9.58879 37.9626C13.3271 37.9626 15.1963 36.6916 15.1963 34.1495C15.1963 33.0654 14.8598 32.2056 14.1869 31.5701C13.514 30.9346 12.2804 30.3925 10.486 29.9439L7.40187 29.1589C5.1215 28.5981 3.42057 27.6262 2.29907 26.243C1.17757 24.8224 0.616822 23.1402 0.616822 21.1963C0.616822 19.7757 0.934579 18.4673 1.57009 17.271C2.20561 16.0374 3.21496 15.0467 4.59814 14.2991C5.98131 13.5514 7.77571 13.1776 9.98131 13.1776C11.4019 13.1776 12.8411 13.3458 14.2991 13.6822C15.7944 13.9813 17.3084 14.5047 18.8411 15.2523L17.3832 19.1215C14.6542 17.8879 12.1869 17.271 9.98131 17.271C6.72898 17.271 5.10281 18.486 5.10281 20.9159C5.10281 21.8505 5.40187 22.6542 6.00001 23.3271C6.59814 24 7.71963 24.5421 9.36449 24.9533L12.4486 25.7383C14.9159 26.3365 16.729 27.3084 17.8879 28.6542C19.0467 30 19.6262 31.7383 19.6262 33.8692C19.6262 35.4019 19.2897 36.8037 18.6168 38.0748C17.9813 39.3084 16.9346 40.2804 15.4766 40.9907C14.0561 41.7009 12.1308 42.0561 9.70094 42.0561C8.09346 42.0561 6.48599 41.8879 4.87851 41.5514C3.30842 41.215 1.68224 40.6729 0 39.9252L1.23364 36.1122C2.84113 36.7477 4.29907 37.215 5.60748 37.514C6.91589 37.8131 8.243 37.9626 9.58879 37.9626ZM23.5325 34.7664V0H28.1307V34.5421C28.1307 35.5514 28.2802 36.3178 28.5793 36.8411C28.9157 37.3271 29.5699 37.5701 30.5419 37.5701H31.4391V41.7757H30.1494C27.6821 41.7757 25.9624 41.1215 24.9905 39.8131C24.0185 38.5047 23.5325 36.8224 23.5325 34.7664ZM56.4023 25.9065V29.271C56.4023 33.2336 55.3742 36.3551 53.3182 38.6355C51.2995 40.9159 48.4023 42.0561 44.6266 42.0561C40.8883 42.0561 37.9911 40.9159 35.935 38.6355C33.8789 36.3551 32.8509 33.2336 32.8509 29.271V25.9065C32.8509 22.0187 33.8602 18.9346 35.8789 16.6542C37.935 14.3365 40.8509 13.1776 44.6266 13.1776C48.4023 13.1776 51.2995 14.3365 53.3182 16.6542C55.3742 18.9346 56.4023 22.0187 56.4023 25.9065ZM51.6359 25.9065C51.6359 23.2523 51.0378 21.1776 49.8415 19.6822C48.6453 18.1495 46.907 17.3832 44.6266 17.3832C42.3836 17.3832 40.6453 18.1495 39.4116 19.6822C38.2154 21.1776 37.6172 23.2523 37.6172 25.9065V29.271C37.6172 32.0374 38.2154 34.1682 39.4116 35.6636C40.6453 37.1589 42.3836 37.9065 44.6266 37.9065C46.907 37.9065 48.6453 37.1589 49.8415 35.6636C51.0378 34.1682 51.6359 32.0374 51.6359 29.271V25.9065ZM84.1879 44.972C84.1879 47.7009 83.0664 49.8879 80.8234 51.5327C78.6178 53.1776 75.5711 54 71.6832 54C69.7393 54 67.7019 53.7383 65.5711 53.215C63.4776 52.6916 61.4963 51.8505 59.6272 50.6916L61.1973 47.1028C63.0664 48.1495 64.8608 48.8785 66.5804 49.2897C68.3374 49.7383 70.0384 49.9626 71.6832 49.9626C74.2253 49.9626 76.1879 49.5514 77.5711 48.729C78.9543 47.9065 79.6459 46.8037 79.6459 45.4206C79.6459 44.4112 79.3094 43.6262 78.6365 43.0654C77.9636 42.5421 76.8795 42.2804 75.3842 42.2804H68.9356C66.5057 42.2804 64.7487 41.7009 63.6646 40.5421C62.5804 39.3832 62.0384 38.1122 62.0384 36.729C62.0384 35.757 62.2627 34.8037 62.7113 33.8692C63.1599 32.8972 63.7954 31.9439 64.6178 31.0093C63.3094 30.2243 62.2627 29.1589 61.4776 27.8131C60.6926 26.4299 60.3001 24.7664 60.3001 22.8224C60.3001 20.6916 60.7487 18.9159 61.6459 17.4953C62.5804 16.0748 63.8141 15.0093 65.3468 14.2991C66.8795 13.5514 68.5991 13.1776 70.5057 13.1776H71.4589C72.7674 13.1776 73.9636 13.3645 75.0477 13.7383H85.029V17.8318L78.973 16.9907C79.758 17.6636 80.3935 18.5047 80.8795 19.514C81.3655 20.486 81.6085 21.6822 81.6085 23.1028C81.6085 25.1215 81.1412 26.8224 80.2066 28.2056C79.3094 29.5888 78.0945 30.6542 76.5617 31.4019C75.029 32.1122 73.3281 32.4673 71.4589 32.4673H70.5057C70.0197 32.4673 69.5524 32.4486 69.1038 32.4112C68.6552 32.3364 68.2066 32.2617 67.758 32.1869C66.6739 33.3832 66.1318 34.5608 66.1318 35.7196C66.1318 37.215 67.1786 37.9626 69.272 37.9626H75.5524C78.244 37.9626 80.3561 38.5608 81.8888 39.757C83.4216 40.9533 84.1879 42.6916 84.1879 44.972ZM71.4589 28.486C72.9169 28.486 74.2066 28.0187 75.3281 27.0841C76.4496 26.1495 77.0103 24.729 77.0103 22.8224C77.0103 20.9533 76.4496 19.5514 75.3281 18.6168C74.2066 17.6449 72.9169 17.1589 71.4589 17.1589H70.5057C69.0103 17.1589 67.7019 17.6449 66.5804 18.6168C65.4589 19.5514 64.8982 20.9533 64.8982 22.8224C64.8982 24.729 65.4589 26.1495 66.5804 27.0841C67.7019 28.0187 69.0103 28.486 70.5057 28.486H71.4589Z" fill="#313131"/>
</svg>
