<svg width="53" height="53" viewBox="0 0 53 53" fill="none" xmlns="http://www.w3.org/2000/svg">
<path d="M38.75 0.857422H14.7273C7.14591 0.857422 1 7.00333 1 14.5847V38.6074C1 46.1888 7.14591 52.3347 14.7273 52.3347H38.75C46.3314 52.3347 52.4773 46.1888 52.4773 38.6074V14.5847C52.4773 7.00333 46.3314 0.857422 38.75 0.857422Z" fill="white"/>
<path d="M38.75 1.71533H14.7272C7.6197 1.71533 1.85791 7.47712 1.85791 14.5847V38.6074C1.85791 45.7149 7.6197 51.4767 14.7272 51.4767H38.75C45.8575 51.4767 51.6193 45.7149 51.6193 38.6074V14.5847C51.6193 7.47712 45.8575 1.71533 38.75 1.71533Z" stroke="#D9E1E7" stroke-width="2" stroke-linejoin="round"/>
<path d="M33.0018 28.312V24.0222C32.977 22.6549 32.4164 21.352 31.4407 20.3938C30.465 19.4356 29.1521 18.8988 27.7845 18.8988C26.417 18.8988 25.1041 19.4356 24.1284 20.3938C23.1527 21.352 22.5921 22.6549 22.5673 24.0222V28.312C22.5681 28.9152 22.4075 29.5076 22.1023 30.0279H33.4676C33.1621 29.5077 33.0012 28.9153 33.0018 28.312V28.312ZM36.4799 31.7438H19.0892C18.8616 31.7438 18.6435 31.6534 18.4826 31.4925C18.3217 31.3316 18.2312 31.1134 18.2312 30.8858C18.2312 30.6583 18.3217 30.4401 18.4826 30.2792C18.6435 30.1183 18.8616 30.0279 19.0892 30.0279C19.5473 30.0309 19.9879 29.8518 20.314 29.53C20.6401 29.2082 20.825 28.7701 20.8282 28.312V24.0222C20.8569 22.1962 21.6024 20.4547 22.9039 19.1735C24.2053 17.8924 25.9583 17.1743 27.7845 17.1743C29.6108 17.1743 31.3638 17.8924 32.6652 19.1735C33.9666 20.4547 34.7122 22.1962 34.7409 24.0222V28.312C34.744 28.7701 34.929 29.2082 35.2551 29.53C35.5812 29.8518 36.0218 30.0309 36.4799 30.0279C36.7075 30.0279 36.9257 30.1183 37.0866 30.2792C37.2475 30.4401 37.3379 30.6583 37.3379 30.8858C37.3379 31.1134 37.2475 31.3316 37.0866 31.4925C36.9257 31.6534 36.7075 31.7438 36.4799 31.7438ZM30.041 34.7466C29.8082 35.1376 29.4778 35.4613 29.0823 35.6861C28.6867 35.911 28.2395 36.0292 27.7845 36.0292C27.3295 36.0292 26.8824 35.911 26.4868 35.6861C26.0913 35.4613 25.7609 35.1376 25.5281 34.7466C25.4524 34.6155 25.4127 34.4667 25.4131 34.3153C25.4135 34.1639 25.454 34.0153 25.5304 33.8846C25.6068 33.7539 25.7165 33.6457 25.8483 33.5711C25.98 33.4965 26.1291 33.458 26.2805 33.4597H29.2894C29.4407 33.4582 29.5898 33.4967 29.7214 33.5714C29.853 33.6461 29.9625 33.7543 30.0389 33.885C30.1152 34.0156 30.1556 34.1642 30.156 34.3155C30.1563 34.4668 30.1166 34.6156 30.041 34.7466V34.7466Z" fill="#809FB8"/>
<path d="M34.4601 20.5907C36.3555 20.5907 37.892 19.0542 37.892 17.1589C37.892 15.2635 36.3555 13.7271 34.4601 13.7271C32.5648 13.7271 31.0283 15.2635 31.0283 17.1589C31.0283 19.0542 32.5648 20.5907 34.4601 20.5907Z" fill="#ED3434"/>
<path d="M34.4602 21.8774C37.0663 21.8774 39.179 19.7648 39.179 17.1587C39.179 14.5526 37.0663 12.4399 34.4602 12.4399C31.8541 12.4399 29.7415 14.5526 29.7415 17.1587C29.7415 19.7648 31.8541 21.8774 34.4602 21.8774Z" stroke="white" stroke-width="3" stroke-linejoin="round"/>
</svg>
